<?xml version="1.0" encoding="utf-8"?>
<svg width="364" height="489" viewBox="0 0 364 489" xmlns="http://www.w3.org/2000/svg">
<rect id="frame" x="0" y="0" width="364" height="489" fill="#ffffbf" stroke="none" stroke-width="0"/>

<!-- Association BELONGS TO -->
<g class="page_0_ihyRBi4H diagram_page" visibility="visible">
	<line x1="182" y1="286" x2="182" y2="143" stroke="#f46d43" stroke-width="2"/>
	<text x="187" y="185" fill="#1a9850" font-family="Verdana" font-size="12">0,N</text>
	<line x1="182" y1="51" x2="182" y2="143" stroke="#f46d43" stroke-width="2"/>
	<text x="187" y="110" fill="#1a9850" font-family="Verdana" font-size="12">1,1</text>
	<g>
		<path d="M216 118 a14 14 90 0 1 14 14 V143 h-96 V132 a14 14 90 0 1 14 -14" fill="#fdae61" stroke="#fdae61" stroke-width="0"/>
		<path d="M230 143 v11 a14 14 90 0 1 -14 14 H148 a14 14 90 0 1 -14 -14 V143 H96" fill="#fee08b" stroke="#fee08b" stroke-width="0"/>
		<rect x="134" y="118" width="96" height="50" fill="none" rx="14" stroke="#f46d43" stroke-width="2"/>
		<line x1="134" y1="143" x2="230" y2="143" stroke="#f46d43" stroke-width="1"/>
		<text x="142" y="135.75" fill="#000" font-family="Verdana" font-size="12">BELONGS TO</text>
	</g>
</g>

<!-- Association BELONGS TO2 -->
<g class="page_0_ihyRBi4H diagram_page" visibility="visible">
	<line x1="182" y1="286" x2="57" y2="286" stroke="#f46d43" stroke-width="2"/>
	<text x="110" y="303" fill="#1a9850" font-family="Verdana" font-size="12">0,N</text>
	<line x1="57" y1="143" x2="57" y2="286" stroke="#f46d43" stroke-width="2"/>
	<text x="62" y="194" fill="#1a9850" font-family="Verdana" font-size="12">0,N</text>
	<g>
		<path d="M91 261 a14 14 90 0 1 14 14 V286 h-96 V275 a14 14 90 0 1 14 -14" fill="#fdae61" stroke="#fdae61" stroke-width="0"/>
		<path d="M105 286 v11 a14 14 90 0 1 -14 14 H23 a14 14 90 0 1 -14 -14 V286 H96" fill="#fee08b" stroke="#fee08b" stroke-width="0"/>
		<rect x="9" y="261" width="96" height="50" fill="none" rx="14" stroke="#f46d43" stroke-width="2"/>
		<line x1="9" y1="286" x2="105" y2="286" stroke="#f46d43" stroke-width="1"/>
		<text x="17" y="278.75" fill="#000" font-family="Verdana" font-size="12">BELONGS TO</text>
	</g>
</g>

<!-- Association BELONGS TO3 -->
<g class="page_0_ihyRBi4H diagram_page" visibility="visible">
	<line x1="182" y1="286" x2="307" y2="286" stroke="#f46d43" stroke-width="2"/>
	<text x="232" y="303" fill="#1a9850" font-family="Verdana" font-size="12">1,1</text>
	<line x1="307" y1="143" x2="307" y2="286" stroke="#f46d43" stroke-width="2"/>
	<text x="312" y="194" fill="#1a9850" font-family="Verdana" font-size="12">0,N</text>
	<g>
		<path d="M341 261 a14 14 90 0 1 14 14 V286 h-96 V275 a14 14 90 0 1 14 -14" fill="#fdae61" stroke="#fdae61" stroke-width="0"/>
		<path d="M355 286 v11 a14 14 90 0 1 -14 14 H273 a14 14 90 0 1 -14 -14 V286 H96" fill="#fee08b" stroke="#fee08b" stroke-width="0"/>
		<rect x="259" y="261" width="96" height="50" fill="none" rx="14" stroke="#f46d43" stroke-width="2"/>
		<line x1="259" y1="286" x2="355" y2="286" stroke="#f46d43" stroke-width="1"/>
		<text x="267" y="278.75" fill="#000" font-family="Verdana" font-size="12">BELONGS TO</text>
	</g>
</g>

<!-- Association PLAY -->
<g class="page_0_ihyRBi4H diagram_page" visibility="visible">
	<line x1="182" y1="286" x2="182" y2="438" stroke="#f46d43" stroke-width="2"/>
	<text x="187" y="396" fill="#1a9850" font-family="Verdana" font-size="12">0,N</text>
	<line x1="307" y1="438" x2="182" y2="438" stroke="#f46d43" stroke-width="2"/>
	<text x="241" y="455" fill="#1a9850" font-family="Verdana" font-size="12">0,N</text>
	<g>
		<path d="M213 404 a14 14 90 0 1 14 14 V429 h-90 V418 a14 14 90 0 1 14 -14" fill="#fdae61" stroke="#fdae61" stroke-width="0"/>
		<path d="M227 429 v29 a14 14 90 0 1 -14 14 H151 a14 14 90 0 1 -14 -14 V429 H90" fill="#fee08b" stroke="#fee08b" stroke-width="0"/>
		<rect x="137" y="404" width="90" height="68" fill="none" rx="14" stroke="#f46d43" stroke-width="2"/>
		<line x1="137" y1="429" x2="227" y2="429" stroke="#f46d43" stroke-width="1"/>
		<text x="167" y="421.75" fill="#000" font-family="Verdana" font-size="12">PLAY</text>
		<text x="144" y="446.8" fill="#000" font-family="Verdana" font-size="12">role</text>
		<text x="144" y="463.8" fill="#000" font-family="Verdana" font-size="12">credit_order</text>
	</g>
</g>

<!-- Entity SEASON -->
<g class="page_0_ihyRBi4H diagram_page" visibility="visible">
	<g>
		<rect x="137" y="9" width="90" height="25" fill="#a6d96a" stroke="#a6d96a" stroke-width="0" opacity="1"/>
		<rect x="137" y="34" width="90" height="59" fill="#d9ef8b" stroke="#d9ef8b" stroke-width="0" opacity="1"/>
		<rect x="137" y="9" width="90" height="84" fill="none" stroke="#66bd63" stroke-width="2" opacity="1"/>
		<line x1="137" y1="34" x2="227" y2="34" stroke="#66bd63" stroke-width="1"/>
	</g>
	<text x="156" y="26.75" fill="#000" font-family="Verdana" font-size="12">SEASON</text>
	<text x="142" y="51.8" fill="#000" font-family="Verdana" font-size="12">code_season</text>
	<line x1="142" y1="54" x2="221" y2="54" stroke="#000" stroke-width="1"/>
	<text x="142" y="68.8" fill="#000" font-family="Verdana" font-size="12">number</text>
	<text x="142" y="85.8" fill="#000" font-family="Verdana" font-size="12">nb_episodes</text>
</g>

<!-- Entity GENRE -->
<g class="page_0_ihyRBi4H diagram_page" visibility="visible">
	<g>
		<rect x="16" y="109" width="82" height="25" fill="#a6d96a" stroke="#a6d96a" stroke-width="0" opacity="1"/>
		<rect x="16" y="134" width="82" height="43" fill="#d9ef8b" stroke="#d9ef8b" stroke-width="0" opacity="1"/>
		<rect x="16" y="109" width="82" height="68" fill="none" stroke="#66bd63" stroke-width="2" opacity="1"/>
		<line x1="16" y1="134" x2="98" y2="134" stroke="#66bd63" stroke-width="1"/>
	</g>
	<text x="36" y="126.75" fill="#000" font-family="Verdana" font-size="12">GENRE</text>
	<text x="21" y="151.8" fill="#000" font-family="Verdana" font-size="12">code_genre</text>
	<line x1="21" y1="154" x2="92" y2="154" stroke="#000" stroke-width="1"/>
	<text x="21" y="168.8" fill="#000" font-family="Verdana" font-size="12">name</text>
</g>

<!-- Entity TYPE -->
<g class="page_0_ihyRBi4H diagram_page" visibility="visible">
	<g>
		<rect x="270" y="109" width="74" height="25" fill="#a6d96a" stroke="#a6d96a" stroke-width="0" opacity="1"/>
		<rect x="270" y="134" width="74" height="43" fill="#d9ef8b" stroke="#d9ef8b" stroke-width="0" opacity="1"/>
		<rect x="270" y="109" width="74" height="68" fill="none" stroke="#66bd63" stroke-width="2" opacity="1"/>
		<line x1="270" y1="134" x2="344" y2="134" stroke="#66bd63" stroke-width="1"/>
	</g>
	<text x="292" y="126.75" fill="#000" font-family="Verdana" font-size="12">TYPE</text>
	<text x="275" y="151.8" fill="#000" font-family="Verdana" font-size="12">code_type</text>
	<line x1="275" y1="154" x2="338" y2="154" stroke="#000" stroke-width="1"/>
	<text x="275" y="168.8" fill="#000" font-family="Verdana" font-size="12">name</text>
</g>

<!-- Entity MOVIE -->
<g class="page_0_ihyRBi4H diagram_page" visibility="visible">
	<g>
		<rect x="137" y="193" width="90" height="25" fill="#a6d96a" stroke="#a6d96a" stroke-width="0" opacity="1"/>
		<rect x="137" y="218" width="90" height="161" fill="#d9ef8b" stroke="#d9ef8b" stroke-width="0" opacity="1"/>
		<rect x="137" y="193" width="90" height="186" fill="none" stroke="#66bd63" stroke-width="2" opacity="1"/>
		<line x1="137" y1="218" x2="227" y2="218" stroke="#66bd63" stroke-width="1"/>
	</g>
	<text x="162" y="210.75" fill="#000" font-family="Verdana" font-size="12">MOVIE</text>
	<text x="142" y="235.8" fill="#000" font-family="Verdana" font-size="12">code_movie</text>
	<line x1="142" y1="238" x2="215" y2="238" stroke="#000" stroke-width="1"/>
	<text x="142" y="252.8" fill="#000" font-family="Verdana" font-size="12">title</text>
	<text x="142" y="269.8" fill="#000" font-family="Verdana" font-size="12">duration</text>
	<text x="142" y="286.8" fill="#000" font-family="Verdana" font-size="12">rating</text>
	<text x="142" y="303.8" fill="#000" font-family="Verdana" font-size="12">summary</text>
	<text x="142" y="320.8" fill="#000" font-family="Verdana" font-size="12">synopsis</text>
	<text x="142" y="337.8" fill="#000" font-family="Verdana" font-size="12">release_date</text>
	<text x="142" y="354.8" fill="#000" font-family="Verdana" font-size="12">country</text>
	<text x="142" y="371.8" fill="#000" font-family="Verdana" font-size="12">poster</text>
</g>

<!-- Entity ACTOR -->
<g class="page_0_ihyRBi4H diagram_page" visibility="visible">
	<g>
		<rect x="268" y="396" width="78" height="25" fill="#a6d96a" stroke="#a6d96a" stroke-width="0" opacity="1"/>
		<rect x="268" y="421" width="78" height="59" fill="#d9ef8b" stroke="#d9ef8b" stroke-width="0" opacity="1"/>
		<rect x="268" y="396" width="78" height="84" fill="none" stroke="#66bd63" stroke-width="2" opacity="1"/>
		<line x1="268" y1="421" x2="346" y2="421" stroke="#66bd63" stroke-width="1"/>
	</g>
	<text x="286" y="413.75" fill="#000" font-family="Verdana" font-size="12">ACTOR</text>
	<text x="273" y="438.8" fill="#000" font-family="Verdana" font-size="12">code_actor</text>
	<line x1="273" y1="441" x2="340" y2="441" stroke="#000" stroke-width="1"/>
	<text x="273" y="455.8" fill="#000" font-family="Verdana" font-size="12">firstname</text>
	<text x="273" y="472.8" fill="#000" font-family="Verdana" font-size="12">lastname</text>
</g>
</svg>